<?xml version="1.0" standalone="no"?><!DOCTYPE svg PUBLIC "-//W3C//DTD SVG 1.1//EN" "http://www.w3.org/Graphics/SVG/1.1/DTD/svg11.dtd"><svg t="1633761703966" class="icon" viewBox="0 0 1024 1024" version="1.1" xmlns="http://www.w3.org/2000/svg" p-id="4924" xmlns:xlink="http://www.w3.org/1999/xlink" width="128" height="128"><defs><style type="text/css"></style></defs><path d="M812.8 665.6L413.866667 512l398.933333-153.6c32-12.8 49.066667-49.066667 36.266667-83.2-12.8-32-49.066667-49.066667-83.2-36.266667l-554.666667 213.333334C187.733333 460.8 170.666667 486.4 170.666667 512s17.066667 51.2 40.533333 59.733333l554.666667 213.333334c8.533333 2.133333 14.933333 4.266667 23.466666 4.266666 25.6 0 49.066667-14.933333 59.733334-40.533333 12.8-34.133333-4.266667-70.4-36.266667-83.2z" fill="#1976D2" p-id="4925"></path><path d="M234.666667 512m-149.333334 0a149.333333 149.333333 0 1 0 298.666667 0 149.333333 149.333333 0 1 0-298.666667 0Z" fill="#1E88E5" p-id="4926"></path><path d="M789.333333 298.666667m-149.333333 0a149.333333 149.333333 0 1 0 298.666667 0 149.333333 149.333333 0 1 0-298.666667 0Z" fill="#1E88E5" p-id="4927"></path><path d="M789.333333 725.333333m-149.333333 0a149.333333 149.333333 0 1 0 298.666667 0 149.333333 149.333333 0 1 0-298.666667 0Z" fill="#1E88E5" p-id="4928"></path></svg>