<svg t="1606379097900" class="icon" viewBox="0 0 1024 1024" version="1.1" xmlns="http://www.w3.org/2000/svg" p-id="2626" width="200" height="200"><path d="M512 832c229.8 0 416-186.2 416-416S741.8 0 512 0 96 186.2 96 416s186.2 416 416 416zM467.6 194.8V161.2c0-18.4 14.8-33.2 33.2-33.2h22.2c18.4 0 33.2 14.8 33.2 33.2v34c31 1.6 61 12.2 86 30.8 11.2 8.2 12.4 24.6 2.4 34.2L612 291.2c-7.6 7.4-19 7.6-28 2-10.8-6.8-22.8-10.2-35.6-10.2h-77.8c-18 0-32.6 16.4-32.6 36.6 0 16.4 10 31 24.2 35.2l124.6 37.4c51.4 15.4 87.4 64.8 87.4 120.2 0 68-52.8 123-118.2 124.8v33.6c0 18.4-14.8 33.2-33.2 33.2h-22.2c-18.4 0-33.2-14.8-33.2-33.2v-34c-31-1.6-61-12.2-86-30.8-11.2-8.2-12.4-24.6-2.4-34.2l32.6-31c7.6-7.4 19-7.6 28-2 10.8 6.8 22.8 10.2 35.6 10.2h77.8c18 0 32.6-16.4 32.6-36.6 0-16.4-10-31-24.2-35.2l-124.6-37.4c-51.4-15.4-87.4-64.8-87.4-120.2 0.2-68 52.8-123 118.2-124.8zM960 704h-65c-39.2 52-89.2 95.4-146 128h127.6c10.6 0 19.2 7.2 19.2 16v32c0 8.8-8.6 16-19.2 16H147.2c-10.6 0-19.2-7.2-19.2-16v-32c0-8.8 8.6-16 19.2-16h127.6c-56.8-32.6-106.6-76-146-128H64c-35.4 0-64 28.6-64 64v192c0 35.4 28.6 64 64 64h896c35.4 0 64-28.6 64-64v-192c0-35.4-28.6-64-64-64z" fill="#1296db" p-id="2627"></path></svg>
